<?xml version="1.0" encoding="UTF-8"?>
<svg xmlns="http://www.w3.org/2000/svg" width="24" height="24" viewBox="0 0 24 24">
  <path d="M10 3h-6a1 1 0 0 0 -1 1v6a1 1 0 0 0 1 1h6a1 1 0 0 0 1 -1v-6a1 1 0 0 0 -1 -1z" fill="currentColor" style="fill: currentColor;"/>
  <path d="M20 3h-6a1 1 0 0 0 -1 1v6a1 1 0 0 0 1 1h6a1 1 0 0 0 1 -1v-6a1 1 0 0 0 -1 -1z" fill="currentColor" style="fill: currentColor;"/>
  <path d="M10 13h-6a1 1 0 0 0 -1 1v6a1 1 0 0 0 1 1h6a1 1 0 0 0 1 -1v-6a1 1 0 0 0 -1 -1z" fill="currentColor" style="fill: currentColor;"/>
  <path d="M17 13a4 4 0 1 1 -3.995 4.2l-.005 -.2l.005 -.2a4 4 0 0 1 3.995 -3.8z" fill="currentColor" style="fill: currentColor;"/>
</svg>