<?xml version="1.0" encoding="UTF-8"?>
<svg xmlns="http://www.w3.org/2000/svg" width="24" height="24" viewBox="0 0 24 24">
  <path d="M19 17v3a1 1 0 0 1 -1 1h-4a1 1 0 0 1 -1 -1v-3z" fill="currentColor" style="fill: currentColor;"/>
  <path d="M11 17v3a1 1 0 0 1 -1 1h-4a1 1 0 0 1 -1 -1v-3z" fill="currentColor" style="fill: currentColor;"/>
  <path d="M20 12a1 1 0 0 1 1 1v2a1 1 0 0 1 -1 1h-16a1 1 0 0 1 -1 -1v-2a1 1 0 0 1 1 -1z" fill="currentColor" style="fill: currentColor;"/>
  <path d="M8.707 3.293l2 2a1 1 0 0 1 .293 .707v5h-6v-5a1 1 0 0 1 .293 -.707l2 -2a1 1 0 0 1 1.414 0" fill="currentColor" style="fill: currentColor;"/>
  <path d="M16.707 3.293l2 2a1 1 0 0 1 .293 .707v5h-6v-5a1 1 0 0 1 .293 -.707l2 -2a1 1 0 0 1 1.414 0" fill="currentColor" style="fill: currentColor;"/>
</svg>