<?xml version="1.0" encoding="UTF-8"?>
<svg xmlns="http://www.w3.org/2000/svg" width="24" height="24" viewBox="0 0 24 24">
  <path d="M7 4a2 2 0 0 0 -2 2v3a2 3 0 0 1 -2 3a2 3 0 0 1 2 3v3a2 2 0 0 0 2 2" fill="none" style="fill: none;" stroke="currentColor" stroke-width="2" stroke-linecap="round" stroke-linejoin="round"/>
  <path d="M17 4a2 2 0 0 1 2 2v3a2 3 0 0 0 2 3a2 3 0 0 0 -2 3v3a2 2 0 0 1 -2 2" fill="none" style="fill: none;" stroke="currentColor" stroke-width="2" stroke-linecap="round" stroke-linejoin="round"/>
</svg>