<?xml version="1.0" encoding="UTF-8"?>
<svg xmlns="http://www.w3.org/2000/svg" width="24" height="24" viewBox="0 0 24 24">
  <path d="M3 8.5c0 1.33 .472 2.55 1.257 3.5a5.5 5.5 0 0 0 7.743 7.743a5.5 5.5 0 0 0 7.743 -7.743a5.5 5.5 0 0 0 -7.743 -7.743a5.5 5.5 0 0 0 -9 4.243" fill="none" style="fill: none;" stroke="currentColor" stroke-width="2" stroke-linecap="round" stroke-linejoin="round"/>
  <path d="M10 9.5c0 -.828 .895 -1.5 2 -1.5s2 .672 2 1.5v5c0 .828 -.895 1.5 -2 1.5s-2 -.672 -2 -1.5l0 -5" fill="none" style="fill: none;" stroke="currentColor" stroke-width="2" stroke-linecap="round" stroke-linejoin="round"/>
</svg>