<?xml version="1.0" encoding="UTF-8"?>
<svg xmlns="http://www.w3.org/2000/svg" width="24" height="24" viewBox="0 0 24 24">
  <path d="M15.958 21h-7.917a2 2 0 0 1 -1.732 -1l-4.041 -7a2 2 0 0 1 0 -2l4.041 -7a2 2 0 0 1 1.732 -1h7.917a2 2 0 0 1 1.732 1l4.042 7a2 2 0 0 1 0 2l-4.041 7a2 2 0 0 1 -1.733 1" fill="none" style="fill: none;" stroke="currentColor" stroke-width="2" stroke-linecap="round" stroke-linejoin="round"/>
  <path d="M15 16l-6 -8" fill="none" style="fill: none;" stroke="currentColor" stroke-width="2" stroke-linecap="round" stroke-linejoin="round"/>
  <path d="M9 16l6 -8" fill="none" style="fill: none;" stroke="currentColor" stroke-width="2" stroke-linecap="round" stroke-linejoin="round"/>
</svg>