<?xml version="1.0" encoding="UTF-8"?>
<svg xmlns="http://www.w3.org/2000/svg" width="24" height="24" viewBox="0 0 24 24">
  <path d="M7 6a1 1 0 0 1 1 -1h8a1 1 0 0 1 1 1v12a1 1 0 0 1 -1 1h-8a1 1 0 0 1 -1 -1l0 -12" fill="none" style="fill: none;" stroke="currentColor" stroke-width="2" stroke-linecap="round" stroke-linejoin="round"/>
  <path d="M22 17h-1a1 1 0 0 1 -1 -1v-8a1 1 0 0 1 1 -1h1" fill="none" style="fill: none;" stroke="currentColor" stroke-width="2" stroke-linecap="round" stroke-linejoin="round"/>
  <path d="M2 17h1a1 1 0 0 0 1 -1v-8a1 1 0 0 0 -1 -1h-1" fill="none" style="fill: none;" stroke="currentColor" stroke-width="2" stroke-linecap="round" stroke-linejoin="round"/>
</svg>