<?xml version="1.0" encoding="UTF-8"?>
<svg xmlns="http://www.w3.org/2000/svg" width="24" height="24" viewBox="0 0 24 24">
  <path d="M3 14c.83 .642 2.077 1.017 3.5 1c1.423 .017 2.67 -.358 3.5 -1c.73 -.565 1.783 -.923 3 -.99" fill="none" style="fill: none;" stroke="currentColor" stroke-width="2" stroke-linecap="round" stroke-linejoin="round"/>
  <path d="M8 3c-.194 .14 -.364 .305 -.506 .49" fill="none" style="fill: none;" stroke="currentColor" stroke-width="2" stroke-linecap="round" stroke-linejoin="round"/>
  <path d="M12 3a2.4 2.4 0 0 0 -1 2a2.4 2.4 0 0 0 1 2" fill="none" style="fill: none;" stroke="currentColor" stroke-width="2" stroke-linecap="round" stroke-linejoin="round"/>
  <path d="M14 10h3v3m-.257 3.743a6 6 0 0 1 -5.743 4.257h-2a6 6 0 0 1 -6 -6v-5h7" fill="none" style="fill: none;" stroke="currentColor" stroke-width="2" stroke-linecap="round" stroke-linejoin="round"/>
  <path d="M20.116 16.124a3 3 0 0 0 -3.118 -4.953" fill="none" style="fill: none;" stroke="currentColor" stroke-width="2" stroke-linecap="round" stroke-linejoin="round"/>
  <path d="M3 3l18 18" fill="none" style="fill: none;" stroke="currentColor" stroke-width="2" stroke-linecap="round" stroke-linejoin="round"/>
</svg>