<?xml version="1.0" encoding="UTF-8"?>
<svg xmlns="http://www.w3.org/2000/svg" width="24" height="24" viewBox="0 0 24 24">
  <path d="M6.68 6.733a1 1 0 0 1 -.68 .267h-2a1 1 0 0 1 -1 -1v-2c0 -.276 .112 -.527 .293 -.708" fill="none" style="fill: none;" stroke="currentColor" stroke-width="2" stroke-linecap="round" stroke-linejoin="round"/>
  <path d="M17 4a1 1 0 0 1 1 -1h2a1 1 0 0 1 1 1v2a1 1 0 0 1 -1 1h-2a1 1 0 0 1 -1 -1l0 -2" fill="none" style="fill: none;" stroke="currentColor" stroke-width="2" stroke-linecap="round" stroke-linejoin="round"/>
  <path d="M20.72 20.693a1 1 0 0 1 -.72 .307h-2a1 1 0 0 1 -1 -1v-2c0 -.282 .116 -.536 .304 -.718" fill="none" style="fill: none;" stroke="currentColor" stroke-width="2" stroke-linecap="round" stroke-linejoin="round"/>
  <path d="M3 18a1 1 0 0 1 1 -1h2a1 1 0 0 1 1 1v2a1 1 0 0 1 -1 1h-2a1 1 0 0 1 -1 -1l0 -2" fill="none" style="fill: none;" stroke="currentColor" stroke-width="2" stroke-linecap="round" stroke-linejoin="round"/>
  <path d="M5 7v10" fill="none" style="fill: none;" stroke="currentColor" stroke-width="2" stroke-linecap="round" stroke-linejoin="round"/>
  <path d="M19 7v8" fill="none" style="fill: none;" stroke="currentColor" stroke-width="2" stroke-linecap="round" stroke-linejoin="round"/>
  <path d="M9 5h8" fill="none" style="fill: none;" stroke="currentColor" stroke-width="2" stroke-linecap="round" stroke-linejoin="round"/>
  <path d="M7 19h10" fill="none" style="fill: none;" stroke="currentColor" stroke-width="2" stroke-linecap="round" stroke-linejoin="round"/>
  <path d="M3 3l18 18" fill="none" style="fill: none;" stroke="currentColor" stroke-width="2" stroke-linecap="round" stroke-linejoin="round"/>
</svg>