<?xml version="1.0" encoding="UTF-8"?>
<svg xmlns="http://www.w3.org/2000/svg" width="24" height="24" viewBox="0 0 24 24">
  <path d="M3 3l18 18" fill="none" style="fill: none;" stroke="currentColor" stroke-width="2" stroke-linecap="round" stroke-linejoin="round"/>
  <path d="M8.469 8.46a5 5 0 0 0 7.058 7.084" fill="none" style="fill: none;" stroke="currentColor" stroke-width="2" stroke-linecap="round" stroke-linejoin="round"/>
  <path d="M16.913 12.936a5 5 0 0 0 -5.826 -5.853" fill="none" style="fill: none;" stroke="currentColor" stroke-width="2" stroke-linecap="round" stroke-linejoin="round"/>
  <path d="M12 7v-4" fill="none" style="fill: none;" stroke="currentColor" stroke-width="2" stroke-linecap="round" stroke-linejoin="round"/>
  <path d="M11 3h2" fill="none" style="fill: none;" stroke="currentColor" stroke-width="2" stroke-linecap="round" stroke-linejoin="round"/>
  <path d="M15.536 8.464l2.828 -2.828" fill="none" style="fill: none;" stroke="currentColor" stroke-width="2" stroke-linecap="round" stroke-linejoin="round"/>
  <path d="M17.657 4.929l1.414 1.414" fill="none" style="fill: none;" stroke="currentColor" stroke-width="2" stroke-linecap="round" stroke-linejoin="round"/>
  <path d="M17 12h4" fill="none" style="fill: none;" stroke="currentColor" stroke-width="2" stroke-linecap="round" stroke-linejoin="round"/>
  <path d="M21 11v2" fill="none" style="fill: none;" stroke="currentColor" stroke-width="2" stroke-linecap="round" stroke-linejoin="round"/>
  <path d="M18.364 18.363l-.707 .707" fill="none" style="fill: none;" stroke="currentColor" stroke-width="2" stroke-linecap="round" stroke-linejoin="round"/>
  <path d="M12 17v4" fill="none" style="fill: none;" stroke="currentColor" stroke-width="2" stroke-linecap="round" stroke-linejoin="round"/>
  <path d="M13 21h-2" fill="none" style="fill: none;" stroke="currentColor" stroke-width="2" stroke-linecap="round" stroke-linejoin="round"/>
  <path d="M8.465 15.536l-2.829 2.828" fill="none" style="fill: none;" stroke="currentColor" stroke-width="2" stroke-linecap="round" stroke-linejoin="round"/>
  <path d="M6.343 19.071l-1.413 -1.414" fill="none" style="fill: none;" stroke="currentColor" stroke-width="2" stroke-linecap="round" stroke-linejoin="round"/>
  <path d="M7 12h-4" fill="none" style="fill: none;" stroke="currentColor" stroke-width="2" stroke-linecap="round" stroke-linejoin="round"/>
  <path d="M3 13v-2" fill="none" style="fill: none;" stroke="currentColor" stroke-width="2" stroke-linecap="round" stroke-linejoin="round"/>
  <path d="M5.636 5.637l-.707 .707" fill="none" style="fill: none;" stroke="currentColor" stroke-width="2" stroke-linecap="round" stroke-linejoin="round"/>
</svg>