<?xml version="1.0" encoding="UTF-8"?>
<svg xmlns="http://www.w3.org/2000/svg" width="24" height="24" viewBox="0 0 24 24">
  <path d="M6 5.5a6 2.5 0 1 0 12 0a6 2.5 0 1 0 -12 0" fill="none" style="fill: none;" stroke="currentColor" stroke-width="2" stroke-linecap="round" stroke-linejoin="round"/>
  <path d="M18 5.5v4.626a1.415 1.415 0 0 1 1.683 2.18l-.097 .108l-1.586 1.586v4c0 1.61 -2.54 2.925 -5.725 3l-.275 0c-3.314 0 -6 -1.343 -6 -3v-2l-1.586 -1.586a1.414 1.414 0 0 1 1.586 -2.287v-6.627" fill="none" style="fill: none;" stroke="currentColor" stroke-width="2" stroke-linecap="round" stroke-linejoin="round"/>
  <path d="M10 12.5v1.5" fill="none" style="fill: none;" stroke="currentColor" stroke-width="2" stroke-linecap="round" stroke-linejoin="round"/>
  <path d="M14 16v1" fill="none" style="fill: none;" stroke="currentColor" stroke-width="2" stroke-linecap="round" stroke-linejoin="round"/>
</svg>